<svg xmlns="http://www.w3.org/2000/svg" xmlns:xlink="http://www.w3.org/1999/xlink" width="493" zoomAndPan="magnify" viewBox="0 0 369.75 549.000006" height="732" preserveAspectRatio="xMidYMid meet" version="1.0"><defs><clipPath id="b0bd455d79"><path d="M 190 137.382812 L 230 137.382812 L 230 140 L 190 140 Z M 190 137.382812 " clip-rule="nonzero"/></clipPath><clipPath id="24d5ed749c"><path d="M 340 169 L 368.769531 169 L 368.769531 204 L 340 204 Z M 340 169 " clip-rule="nonzero"/></clipPath><clipPath id="91e9792f5c"><path d="M 242 137.382812 L 281 137.382812 L 281 152 L 242 152 Z M 242 137.382812 " clip-rule="nonzero"/></clipPath><clipPath id="8204e7a5f4"><path d="M 4 380.296875 L 33 380.296875 L 33 414 L 4 414 Z M 4 380.296875 " clip-rule="nonzero"/></clipPath><clipPath id="beae081cf8"><path d="M 203 124 L 230 124 L 230 140 L 203 140 Z M 203 124 " clip-rule="nonzero"/></clipPath><clipPath id="53c6822869"><path d="M 199.894531 0 L 292.65625 4.964844 L 284.207031 162.808594 L 191.445312 157.84375 Z M 199.894531 0 " clip-rule="nonzero"/></clipPath><clipPath id="2e02c6c8d6"><path d="M 59.964844 -7.492188 L 427.265625 12.171875 L 398.949219 541.058594 L 31.648438 521.394531 Z M 59.964844 -7.492188 " clip-rule="nonzero"/></clipPath><clipPath id="f25d5f245d"><path d="M 241 132 L 281 132 L 281 152 L 241 152 Z M 241 132 " clip-rule="nonzero"/></clipPath><clipPath id="d0f723abb3"><path d="M 199.894531 0 L 292.65625 4.964844 L 284.207031 162.808594 L 191.445312 157.84375 Z M 199.894531 0 " clip-rule="nonzero"/></clipPath><clipPath id="c0f36c1288"><path d="M 59.964844 -7.492188 L 427.265625 12.171875 L 398.949219 541.058594 L 31.648438 521.394531 Z M 59.964844 -7.492188 " clip-rule="nonzero"/></clipPath><clipPath id="a975bc3b48"><path d="M 94 70 L 209 70 L 209 172 L 94 172 Z M 94 70 " clip-rule="nonzero"/></clipPath><clipPath id="d5fae33fa8"><path d="M 117.824219 61.101562 L 212.105469 82.308594 L 188.269531 188.285156 L 93.988281 167.078125 Z M 117.824219 61.101562 " clip-rule="nonzero"/></clipPath><clipPath id="28d6800ed2"><path d="M 117.824219 61.101562 L 212.105469 82.308594 L 188.269531 188.285156 L 93.988281 167.078125 Z M 117.824219 61.101562 " clip-rule="nonzero"/></clipPath><clipPath id="2981e2303d"><path d="M 176.320312 313 L 278.84375 313 L 278.84375 547 L 176.320312 547 Z M 176.320312 313 " clip-rule="nonzero"/></clipPath></defs><path fill="#ffc800" d="M 93.433594 348.421875 C 100.933594 344.871094 108.980469 341.292969 117.355469 337.792969 C 120.679688 336.40625 122.242188 332.582031 120.859375 329.261719 C 119.46875 325.9375 115.648438 324.363281 112.324219 325.753906 C 103.773438 329.335938 95.535156 332.992188 87.859375 336.632812 C 84.605469 338.167969 83.21875 342.0625 84.757812 345.316406 C 85.867188 347.671875 88.210938 349.050781 90.648438 349.050781 C 91.585938 349.050781 92.535156 348.851562 93.433594 348.421875 " fill-opacity="1" fill-rule="nonzero"/><path fill="#ffc800" d="M 44.53125 374.960938 C 45.808594 374.960938 47.097656 374.582031 48.226562 373.800781 C 54.6875 369.34375 62.089844 364.796875 70.226562 360.28125 C 73.375 358.53125 74.519531 354.566406 72.769531 351.410156 C 71.023438 348.261719 67.066406 347.121094 63.90625 348.867188 C 55.398438 353.585938 47.625 358.367188 40.824219 363.0625 C 37.859375 365.113281 37.113281 369.175781 39.160156 372.140625 C 40.425781 373.972656 42.457031 374.960938 44.53125 374.960938 " fill-opacity="1" fill-rule="nonzero"/><g clip-path="url(#b0bd455d79)"><path fill="#ffc800" d="M 195.832031 134.953125 C 204.796875 136.480469 213.5 138.0625 221.695312 139.660156 C 222.113281 139.742188 222.535156 139.78125 222.945312 139.78125 C 226.007812 139.78125 228.730469 137.617188 229.335938 134.503906 C 230.023438 130.964844 227.71875 127.542969 224.183594 126.855469 C 215.886719 125.242188 207.085938 123.636719 198.023438 122.089844 C 194.496094 121.496094 191.109375 123.875 190.503906 127.429688 C 189.898438 130.980469 192.289062 134.347656 195.832031 134.953125 " fill-opacity="1" fill-rule="nonzero"/></g><g clip-path="url(#24d5ed749c)"><path fill="#ffc800" d="M 368.03125 195.992188 C 366.648438 186.90625 360.960938 178.351562 351.125 170.566406 C 348.296875 168.332031 344.203125 168.808594 341.96875 171.632812 C 339.734375 174.460938 340.210938 178.5625 343.035156 180.796875 C 350.199219 186.464844 354.273438 192.242188 355.140625 197.957031 C 355.636719 201.1875 358.414062 203.503906 361.578125 203.503906 C 361.90625 203.503906 362.238281 203.476562 362.570312 203.425781 C 366.125 202.882812 368.574219 199.554688 368.03125 195.992188 " fill-opacity="1" fill-rule="nonzero"/></g><path fill="#ffc800" d="M 357.292969 216.03125 C 354.492188 213.773438 350.386719 214.214844 348.121094 217.019531 C 343.875 222.300781 337.722656 227.878906 329.855469 233.589844 C 326.949219 235.710938 326.296875 239.785156 328.414062 242.703125 C 329.6875 244.460938 331.675781 245.394531 333.691406 245.394531 C 335.019531 245.394531 336.359375 244.988281 337.515625 244.152344 C 346.3125 237.757812 353.300781 231.386719 358.277344 225.207031 C 360.53125 222.398438 360.09375 218.289062 357.292969 216.03125 " fill-opacity="1" fill-rule="nonzero"/><g clip-path="url(#91e9792f5c)"><path fill="#ffc800" d="M 276.171875 138.714844 C 268.121094 136.539062 259.398438 134.386719 250.242188 132.316406 C 246.738281 131.515625 243.242188 133.722656 242.449219 137.242188 C 241.65625 140.753906 243.859375 144.242188 247.375 145.039062 C 256.351562 147.066406 264.894531 149.179688 272.769531 151.308594 C 273.339844 151.464844 273.914062 151.535156 274.476562 151.535156 C 277.351562 151.535156 279.976562 149.617188 280.761719 146.710938 C 281.703125 143.234375 279.644531 139.652344 276.171875 138.714844 " fill-opacity="1" fill-rule="nonzero"/></g><path fill="#ffc800" d="M 330.285156 165.03125 C 331.796875 161.761719 330.367188 157.882812 327.101562 156.371094 C 319.757812 152.980469 311.265625 149.644531 301.863281 146.457031 C 298.457031 145.304688 294.757812 147.140625 293.605469 150.550781 C 292.453125 153.960938 294.277344 157.660156 297.6875 158.820312 C 306.65625 161.851562 314.714844 165.015625 321.632812 168.21875 C 322.519531 168.625 323.449219 168.816406 324.363281 168.816406 C 326.828125 168.816406 329.183594 167.414062 330.285156 165.03125 " fill-opacity="1" fill-rule="nonzero"/><path fill="#ffc800" d="M 308.117188 247.34375 C 301.191406 251.242188 293.402344 255.277344 284.980469 259.324219 C 281.734375 260.878906 280.363281 264.773438 281.917969 268.023438 C 283.042969 270.367188 285.371094 271.726562 287.800781 271.726562 C 288.746094 271.726562 289.707031 271.519531 290.617188 271.085938 C 299.300781 266.914062 307.339844 262.75 314.511719 258.710938 C 317.648438 256.941406 318.761719 252.964844 316.996094 249.824219 C 315.226562 246.691406 311.253906 245.570312 308.117188 247.34375 " fill-opacity="1" fill-rule="nonzero"/><path fill="#ffc800" d="M 261.109375 270.105469 C 253.492188 273.371094 245.304688 276.710938 236.78125 280.054688 C 233.433594 281.367188 231.78125 285.152344 233.09375 288.511719 C 234.09375 291.082031 236.5625 292.652344 239.164062 292.652344 C 239.957031 292.652344 240.757812 292.507812 241.539062 292.203125 C 250.183594 288.816406 258.496094 285.417969 266.238281 282.101562 C 269.546875 280.6875 271.085938 276.855469 269.671875 273.542969 C 268.253906 270.230469 264.410156 268.683594 261.109375 270.105469 " fill-opacity="1" fill-rule="nonzero"/><path fill="#ffc800" d="M 189.441406 310.941406 C 190.148438 310.941406 190.871094 310.824219 191.585938 310.578125 C 199.398438 307.847656 207.835938 304.859375 216.632812 301.632812 C 220.015625 300.394531 221.746094 296.644531 220.511719 293.261719 C 219.265625 289.878906 215.515625 288.148438 212.148438 289.382812 C 203.421875 292.582031 195.046875 295.554688 187.289062 298.257812 C 183.894531 299.445312 182.09375 303.164062 183.285156 306.566406 C 184.21875 309.257812 186.742188 310.941406 189.441406 310.941406 " fill-opacity="1" fill-rule="nonzero"/><path fill="#ffc800" d="M 162.257812 306.90625 L 155.761719 309.164062 C 149.410156 311.386719 143.152344 313.664062 137.164062 315.914062 C 133.789062 317.183594 132.089844 320.945312 133.355469 324.316406 C 134.339844 326.933594 136.824219 328.542969 139.460938 328.542969 C 140.21875 328.542969 141 328.410156 141.753906 328.125 C 147.648438 325.90625 153.808594 323.671875 160.0625 321.476562 L 166.511719 319.238281 C 169.917969 318.0625 171.722656 314.351562 170.550781 310.941406 C 169.371094 307.539062 165.648438 305.726562 162.257812 306.90625 " fill-opacity="1" fill-rule="nonzero"/><path fill="#ffc800" d="M 17.136719 430.589844 C 15.777344 427.257812 11.972656 425.648438 8.644531 427.007812 C 5.304688 428.371094 3.707031 432.179688 5.066406 435.519531 C 8.320312 443.503906 14.308594 451.304688 22.859375 458.695312 C 24.089844 459.761719 25.609375 460.28125 27.117188 460.28125 C 28.941406 460.28125 30.761719 459.515625 32.050781 458.023438 C 34.402344 455.296875 34.105469 451.179688 31.378906 448.820312 C 24.398438 442.789062 19.613281 436.65625 17.136719 430.589844 " fill-opacity="1" fill-rule="nonzero"/><path fill="#ffc800" d="M 75.171875 474.367188 C 66.621094 470.652344 58.847656 466.832031 52.074219 463.007812 C 48.949219 461.238281 44.96875 462.347656 43.195312 465.480469 C 41.429688 468.621094 42.535156 472.597656 45.667969 474.367188 C 52.828125 478.417969 61.015625 482.441406 69.988281 486.335938 C 70.832031 486.703125 71.710938 486.878906 72.578125 486.878906 C 75.097656 486.878906 77.492188 485.410156 78.5625 482.949219 C 79.996094 479.640625 78.480469 475.804688 75.171875 474.367188 " fill-opacity="1" fill-rule="nonzero"/><g clip-path="url(#8204e7a5f4)"><path fill="#ffc800" d="M 8.851562 413.394531 C 9.648438 413.722656 10.472656 413.871094 11.285156 413.871094 C 13.863281 413.871094 16.308594 412.332031 17.332031 409.785156 C 19.820312 403.609375 24.4375 397.144531 31.066406 390.566406 C 33.617188 388.027344 33.632812 383.898438 31.101562 381.335938 C 28.570312 378.789062 24.445312 378.765625 21.886719 381.300781 C 13.992188 389.136719 8.394531 397.078125 5.242188 404.90625 C 3.894531 408.25 5.511719 412.050781 8.851562 413.394531 " fill-opacity="1" fill-rule="nonzero"/></g><path fill="#ffc800" d="M 124.1875 492.113281 C 115.414062 489.40625 107.066406 486.640625 99.382812 483.882812 C 95.964844 482.664062 92.261719 484.433594 91.046875 487.824219 C 89.832031 491.21875 91.59375 494.953125 94.984375 496.167969 C 102.859375 498.988281 111.394531 501.820312 120.347656 504.582031 C 120.988281 504.78125 121.632812 504.871094 122.269531 504.871094 C 125.054688 504.871094 127.632812 503.074219 128.496094 500.269531 C 129.554688 496.824219 127.628906 493.171875 124.1875 492.113281 " fill-opacity="1" fill-rule="nonzero"/><path fill="#ffc800" d="M 161.988281 502.722656 C 157.703125 501.621094 153.527344 500.519531 149.460938 499.410156 C 145.972656 498.460938 142.398438 500.527344 141.460938 504.003906 C 140.519531 507.480469 142.574219 511.0625 146.042969 512.003906 C 150.171875 513.121094 154.40625 514.238281 158.746094 515.355469 C 159.289062 515.496094 159.839844 515.558594 160.371094 515.558594 C 163.277344 515.558594 165.925781 513.605469 166.679688 510.660156 C 167.574219 507.167969 165.476562 503.617188 161.988281 502.722656 " fill-opacity="1" fill-rule="nonzero"/><g clip-path="url(#beae081cf8)"><g clip-path="url(#53c6822869)"><g clip-path="url(#2e02c6c8d6)"><path fill="#ffc800" d="M 223.859375 127.019531 C 219.667969 126.152344 215.394531 125.289062 211.03125 124.421875 C 207.488281 123.699219 204.066406 126.011719 203.363281 129.550781 C 202.664062 133.082031 204.957031 136.511719 208.488281 137.214844 C 212.8125 138.078125 217.058594 138.9375 221.222656 139.796875 C 221.546875 139.867188 221.871094 139.910156 222.203125 139.929688 C 225.367188 140.097656 228.261719 137.929688 228.925781 134.730469 C 229.652344 131.207031 227.386719 127.753906 223.859375 127.019531 " fill-opacity="1" fill-rule="nonzero"/></g></g></g><g clip-path="url(#f25d5f245d)"><g clip-path="url(#d0f723abb3)"><g clip-path="url(#c0f36c1288)"><path fill="#ffc800" d="M 246.953125 145.359375 C 255.820312 147.363281 264.425781 149.410156 272.527344 151.441406 C 272.941406 151.546875 273.355469 151.605469 273.769531 151.628906 C 276.824219 151.792969 279.660156 149.777344 280.429688 146.703125 C 281.304688 143.207031 279.1875 139.664062 275.695312 138.789062 C 267.496094 136.734375 258.792969 134.660156 249.828125 132.632812 C 246.335938 131.851562 242.828125 134.042969 242.035156 137.558594 C 241.238281 141.078125 243.445312 144.566406 246.953125 145.359375 " fill-opacity="1" fill-rule="nonzero"/></g></g></g><g clip-path="url(#a975bc3b48)"><g clip-path="url(#d5fae33fa8)"><g clip-path="url(#28d6800ed2)"><path fill="#ffc800" d="M 178.019531 103.769531 C 177.945312 103.632812 177.871094 103.492188 177.800781 103.355469 C 177.378906 103.636719 176.957031 103.917969 176.539062 104.199219 C 176.617188 104.320312 176.699219 104.4375 176.785156 104.554688 C 177.195312 104.292969 177.609375 104.03125 178.019531 103.769531 Z M 178.175781 99.632812 C 178.25 99.796875 178.320312 99.964844 178.394531 100.128906 C 178.78125 99.863281 179.171875 99.59375 179.558594 99.328125 C 179.496094 99.230469 179.433594 99.132812 179.371094 99.03125 C 178.972656 99.230469 178.574219 99.433594 178.175781 99.632812 Z M 186.671875 96.285156 C 186.734375 96.394531 186.792969 96.507812 186.855469 96.617188 C 187.246094 96.398438 187.632812 96.175781 188.019531 95.953125 C 187.964844 95.859375 187.90625 95.761719 187.851562 95.667969 C 187.457031 95.871094 187.066406 96.078125 186.671875 96.285156 Z M 163.480469 119.535156 C 163.59375 119.640625 163.707031 119.746094 163.820312 119.851562 C 164.585938 119.300781 165.351562 118.746094 166.644531 117.8125 C 165.742188 117.953125 165.460938 117.917969 165.300781 118.039062 C 164.675781 118.507812 164.085938 119.03125 163.480469 119.535156 Z M 172.050781 106.632812 C 172.183594 106.847656 172.3125 107.066406 172.445312 107.28125 C 173.410156 106.644531 174.371094 106.011719 175.335938 105.375 C 175.226562 105.207031 175.117188 105.039062 175.007812 104.875 C 174.023438 105.460938 173.039062 106.046875 172.050781 106.632812 Z M 124.714844 89.890625 C 125.039062 90.8125 125.367188 91.738281 125.714844 92.726562 C 127.203125 91.640625 127.203125 91.640625 124.714844 89.890625 Z M 140.210938 145.382812 C 140.335938 145.605469 140.464844 145.832031 140.589844 146.054688 C 142.4375 144.660156 144.289062 143.261719 146.136719 141.867188 C 146.003906 141.691406 145.875 141.519531 145.742188 141.34375 C 143.898438 142.691406 142.054688 144.035156 140.210938 145.382812 Z M 135.703125 110.957031 C 137.726562 113.933594 139.558594 117.03125 142.289062 119.398438 C 140.976562 115.875 138.296875 113.429688 135.703125 110.957031 Z M 175.164062 147.804688 C 172.84375 142.90625 165.140625 134.230469 162.371094 133.164062 C 166.804688 138.234375 170.984375 143.019531 175.164062 147.804688 Z M 128.882812 83.484375 C 130.808594 88.960938 134.265625 93.457031 137.554688 98.074219 C 137.46875 97.238281 137.109375 96.550781 136.730469 95.871094 C 135.773438 94.148438 134.535156 92.527344 133.902344 90.695312 C 132.890625 87.769531 131.054688 85.53125 128.882812 83.484375 Z M 179.972656 108.878906 C 180.617188 108.628906 181.261719 108.378906 181.90625 108.128906 C 181.769531 107.933594 181.632812 107.734375 181.496094 107.539062 C 181.003906 108.011719 180.503906 108.484375 180.007812 108.960938 C 177.496094 110.378906 174.960938 111.753906 172.488281 113.238281 C 171.726562 113.699219 171.132812 114.441406 170.464844 115.054688 C 169.417969 114.929688 168.847656 115.507812 168.621094 116.566406 C 169.222656 116.039062 169.828125 115.515625 170.429688 114.988281 C 172.632812 113.785156 174.878906 112.65625 177.019531 111.351562 C 178.101562 110.691406 178.992188 109.710938 179.972656 108.878906 Z M 196.777344 86.792969 C 198.875 86.222656 200.179688 84.65625 201.558594 83.183594 C 199.453125 83.773438 197.40625 84.4375 196.824219 86.886719 C 194.484375 87.777344 192.320312 88.972656 190.46875 90.703125 C 193.074219 90.230469 195.039062 88.703125 196.777344 86.792969 Z M 171.097656 123.332031 C 171.613281 122.980469 172.128906 122.628906 172.648438 122.273438 C 172.503906 122.136719 172.359375 122 172.214844 121.867188 C 171.859375 122.390625 171.503906 122.914062 171.148438 123.441406 C 169.574219 123.136719 168.734375 124.1875 167.769531 125.003906 C 167.863281 125.164062 167.957031 125.324219 168.054688 125.484375 C 169.070312 124.773438 170.089844 124.0625 171.097656 123.332031 Z M 105.578125 156.601562 C 103.765625 157.542969 101.96875 158.515625 100.136719 159.414062 C 98.335938 160.289062 97.503906 162.671875 94.960938 162.765625 C 96.53125 158.089844 100.992188 156.246094 103.550781 152.601562 C 101.679688 153.804688 99.8125 155.011719 97.945312 156.214844 C 97.800781 156.027344 97.65625 155.84375 97.511719 155.652344 C 98.371094 153.660156 100.703125 153.179688 102.121094 151.757812 C 103.652344 150.230469 105.449219 148.972656 107.085938 147.542969 C 108.722656 146.117188 110.273438 144.59375 111.910156 143.175781 C 113.550781 141.753906 115.25 140.398438 116.9375 139.03125 C 118.625 137.664062 120.324219 136.316406 122.027344 134.96875 C 123.734375 133.621094 125.445312 132.28125 127.160156 130.953125 C 128.878906 129.625 130.605469 128.308594 132.332031 126.988281 C 134.046875 125.675781 135.765625 124.367188 137.667969 122.917969 C 135.675781 120.183594 133.777344 117.621094 131.933594 115.023438 C 129.363281 111.402344 126.828125 107.757812 124.28125 104.121094 C 120.570312 98.816406 118.28125 92.78125 115.558594 86.972656 C 115.175781 86.160156 115.367188 85.078125 115.261719 83.699219 C 117.25 84.484375 117.523438 86.28125 118.949219 87.078125 C 119.644531 86.484375 120.382812 85.851562 121.367188 85.003906 C 121.511719 86.03125 121.609375 86.734375 121.746094 87.738281 C 123.15625 85.808594 124.226562 87.648438 125.609375 88.003906 C 125.589844 86.320312 124.46875 84.339844 127.132812 84.128906 C 125.894531 79.613281 125.894531 79.613281 129.449219 78.882812 C 130.332031 80.121094 131.246094 81.402344 132.195312 82.730469 C 133.339844 80.527344 132.722656 78.671875 131.5625 76.835938 C 130.960938 75.882812 130.515625 74.828125 130 73.816406 C 129.492188 72.816406 129.242188 71.792969 129.421875 70.730469 C 129.621094 70.660156 129.824219 70.589844 130.023438 70.523438 C 132.5625 75.0625 135 79.667969 137.664062 84.132812 C 140.324219 88.589844 143.136719 92.960938 146.019531 97.277344 C 148.945312 101.652344 152.039062 105.917969 155.191406 110.421875 C 157.445312 108.953125 159.382812 107.652344 161.351562 106.40625 C 167.019531 102.824219 172.691406 99.25 178.378906 95.695312 C 185.019531 91.539062 191.65625 87.375 198.339844 83.292969 C 199.777344 82.414062 201.398438 81.816406 202.96875 81.1875 C 203.511719 80.96875 204.171875 81.039062 205.484375 80.90625 C 202.316406 85.332031 197.683594 87 194.523438 90.097656 C 195.015625 90.90625 195.460938 91.632812 196 92.511719 C 197.742188 92.160156 199.746094 91.652344 201.546875 90.351562 C 202.753906 89.480469 203.03125 89.695312 204.496094 91.308594 C 202.679688 92.222656 200.925781 93.042969 199.234375 93.972656 C 197.605469 94.871094 196.039062 95.875 194.640625 97.292969 C 196.464844 96.570312 198.257812 95.761719 200.117188 95.144531 C 201.910156 94.546875 203.769531 94.148438 205.601562 93.664062 C 205.722656 93.878906 205.84375 94.089844 205.964844 94.300781 C 205.136719 95.054688 204.308594 95.808594 203.542969 96.503906 C 205.046875 96.816406 206.585938 97.136719 208.246094 97.480469 C 208.121094 99.996094 204.527344 99.210938 204.582031 101.617188 C 203.113281 102.765625 201.640625 103.910156 200.113281 105.101562 C 200.453125 105.4375 200.757812 105.738281 201.199219 106.183594 C 190.472656 113.078125 179.8125 119.933594 168.898438 126.949219 C 177.0625 136.230469 184.113281 145.835938 191.28125 155.777344 C 189.9375 156.070312 189.085938 156.257812 188.472656 156.394531 C 185.835938 155.710938 185.574219 151.730469 181.929688 152.5625 C 182.636719 153.566406 183.257812 154.472656 183.910156 155.359375 C 184.445312 156.085938 185.292969 156.625 184.640625 157.8125 C 184.460938 158.144531 184.980469 158.988281 185.347656 159.46875 C 186.441406 160.886719 187.632812 162.234375 188.761719 163.628906 C 189.097656 164.039062 189.359375 164.503906 189.921875 165.347656 C 187.699219 165.09375 187.171875 163.25 185.605469 162.488281 C 183.039062 164.378906 181.695312 161.691406 179.4375 160.160156 C 180.632812 162.835938 182.710938 164.417969 183.113281 167.089844 C 180.269531 167.632812 177.910156 167.875 176.007812 165.148438 C 174.40625 162.859375 172.332031 160.898438 170.464844 158.792969 C 170.316406 158.910156 170.164062 159.023438 170.015625 159.140625 C 173.285156 163.277344 176.554688 167.410156 180.113281 171.90625 C 178.335938 171.9375 177.753906 171.058594 177.085938 170.363281 C 168.796875 161.679688 161.011719 152.558594 153.566406 143.144531 C 152.753906 142.121094 151.851562 141.171875 150.839844 140.011719 C 149.5625 140.882812 148.398438 141.636719 147.277344 142.449219 C 142.234375 146.109375 137.160156 149.730469 132.183594 153.480469 C 127.292969 157.164062 122.546875 161.039062 117.65625 164.722656 C 115.554688 166.300781 113.3125 167.726562 111.011719 168.992188 C 109.484375 169.828125 107.722656 170.074219 105.378906 169.554688 C 106.527344 168.25 107.308594 167.359375 108.214844 166.324219 C 107.765625 165.816406 107.300781 165.289062 106.832031 164.757812 C 107.597656 163.488281 108.371094 162.210938 109.347656 160.589844 C 108.269531 160.625 107.480469 160.648438 106.71875 160.671875 C 105.515625 160.171875 105.132812 158.804688 105.535156 156.511719 C 107.558594 156.167969 107.757812 156.046875 108.894531 154.242188 C 107.40625 154.875 106.339844 155.503906 105.578125 156.601562 " fill-opacity="1" fill-rule="nonzero"/></g></g></g><g clip-path="url(#2981e2303d)"><path fill="#ffc800" d="M 177.054688 356.882812 C 177.449219 356.757812 179.039062 356.28125 179.476562 356.417969 C 179.910156 356.566406 186.253906 366.980469 186.253906 366.980469 L 187.820312 367.375 C 187.820312 367.375 187.464844 365.753906 187.941406 364.980469 C 188.351562 364.3125 188.746094 364.570312 188.746094 364.570312 C 188.964844 364.664062 188.910156 365.46875 189.128906 366.3125 C 189.25 366.789062 189.808594 367.605469 190.324219 368.382812 C 190.84375 369.144531 191.003906 369.226562 191.835938 369.988281 C 192.667969 370.75 192.925781 371.0625 192.925781 371.0625 C 192.925781 371.0625 196.054688 374.53125 196.476562 374.941406 C 196.898438 375.363281 200.453125 377.078125 202.359375 377.851562 C 204.261719 378.644531 205.828125 379.363281 205.828125 379.363281 C 205.828125 379.363281 205.636719 377.171875 206.78125 374.65625 C 207.9375 372.136719 210.335938 369.835938 211.925781 367.808594 C 213.519531 365.78125 214.5 364.027344 214.5 364.027344 L 215.480469 362.652344 C 215.480469 362.652344 216.9375 359.863281 218.855469 358.160156 C 220.789062 356.445312 223.144531 354.527344 223.144531 354.527344 C 223.144531 354.527344 223.007812 353.996094 223.796875 353.382812 C 224.585938 352.769531 226.289062 352.648438 226.394531 352.265625 C 226.503906 351.886719 227.007812 351.164062 226.574219 349.695312 C 226.136719 348.226562 225.074219 346.988281 225.074219 346.988281 C 225.074219 346.988281 221.972656 348.523438 220.109375 348.59375 C 218.242188 348.660156 217.792969 347.789062 217.847656 346.808594 C 217.890625 345.84375 217.644531 345.246094 217.480469 344.945312 C 217.316406 344.644531 216.828125 344.089844 216.773438 343.667969 C 216.71875 343.257812 216.882812 343.011719 216.882812 343.011719 L 216.9375 342.402344 L 216.800781 341.871094 C 216.800781 341.871094 216.296875 341.964844 215.929688 341.585938 C 215.5625 341.203125 215.65625 341 215.710938 340.753906 C 215.75 340.523438 215.628906 339.871094 215.628906 339.871094 C 215.628906 339.871094 214.214844 339.9375 213.464844 339.515625 C 212.703125 339.09375 212.621094 338.578125 212.785156 338.03125 C 212.949219 337.5 212.988281 337.09375 212.988281 337.09375 C 212.988281 337.09375 213.300781 336.546875 213.585938 335.949219 C 213.398438 335.800781 213.191406 335.570312 213.003906 335.226562 C 212.375 334.03125 212.292969 332.847656 212.292969 332.847656 L 213.996094 332.453125 C 213.980469 332.398438 213.96875 332.355469 213.953125 332.300781 C 213.765625 331.8125 213.722656 331.8125 213.519531 331.5 C 213.316406 331.171875 213.453125 330.371094 213.453125 330.371094 C 213.453125 330.371094 213.820312 327.429688 214.050781 325.785156 C 214.199219 324.734375 214.429688 324.027344 214.582031 323.648438 C 214.566406 323.621094 214.539062 323.605469 214.527344 323.578125 C 214.5 323.605469 214.472656 323.632812 214.457031 323.660156 C 214.363281 323.851562 214.269531 324.054688 214.199219 324.257812 C 213.96875 324.859375 213.820312 325.484375 213.710938 326.125 C 213.722656 326.246094 213.75 326.355469 213.792969 326.464844 C 213.75 326.355469 213.722656 326.261719 213.710938 326.152344 C 213.710938 326.152344 213.710938 326.164062 213.710938 326.164062 C 213.613281 326.816406 213.558594 327.484375 213.546875 328.136719 C 213.546875 327.472656 213.574219 326.816406 213.65625 326.152344 C 213.667969 326.082031 213.667969 326.027344 213.683594 325.960938 C 213.574219 325.183594 213.792969 324.367188 214.28125 323.742188 C 214.324219 323.632812 214.375 323.539062 214.429688 323.441406 C 214.226562 323.183594 214.035156 322.925781 213.886719 322.640625 C 213.695312 322.300781 213.546875 321.933594 213.480469 321.550781 C 213.453125 321.359375 213.4375 321.15625 213.4375 320.964844 C 213.4375 320.910156 213.453125 320.871094 213.453125 320.816406 L 213.464844 320.75 L 213.480469 320.679688 C 213.492188 320.585938 213.519531 320.488281 213.546875 320.394531 C 213.667969 320.027344 213.859375 319.6875 214.089844 319.386719 C 214.144531 319.320312 214.199219 319.25 214.253906 319.183594 C 214.269531 319.140625 214.28125 319.113281 214.308594 319.074219 C 214.484375 318.71875 214.71875 318.394531 214.988281 318.121094 C 215.65625 316.828125 217.097656 315.523438 220.433594 314.773438 C 226.289062 313.46875 232.058594 312.800781 234.425781 313.765625 C 234.441406 313.765625 234.453125 313.78125 234.46875 313.78125 L 234.578125 313.820312 L 234.6875 313.863281 L 234.792969 313.902344 L 234.847656 313.996094 L 234.957031 314.039062 C 235.53125 314.296875 236.046875 314.652344 236.507812 315.058594 C 236.972656 315.480469 237.355469 315.957031 237.695312 316.460938 C 238.035156 316.976562 238.320312 317.507812 238.566406 318.066406 C 238.621094 318.191406 238.675781 318.296875 238.726562 318.421875 C 238.742188 318.449219 238.753906 318.476562 238.78125 318.488281 C 238.863281 318.613281 238.933594 318.734375 239 318.855469 C 239.175781 319.058594 239.339844 319.265625 239.503906 319.480469 C 240.144531 320.394531 240.59375 321.429688 240.894531 322.488281 C 241.027344 322.992188 241.136719 323.511719 241.21875 324.042969 C 241.804688 325.335938 241.941406 325.730469 241.941406 325.730469 C 241.941406 325.730469 242.527344 325.265625 243.109375 325.675781 C 243.695312 326.070312 243.695312 326.285156 243.695312 326.285156 C 243.695312 326.285156 247.46875 326.914062 249.101562 330.519531 C 250.1875 332.914062 250.378906 334.4375 250.367188 335.625 L 250.394531 335.703125 L 250.421875 335.800781 L 250.460938 335.992188 C 250.488281 336.113281 250.515625 336.234375 250.542969 336.359375 L 250.613281 336.726562 L 250.652344 336.917969 L 250.679688 337.105469 L 250.734375 337.472656 C 250.746094 337.597656 250.761719 337.71875 250.773438 337.855469 L 250.789062 338.046875 L 250.800781 338.140625 L 250.800781 338.234375 L 250.816406 338.617188 C 250.816406 338.683594 250.816406 338.765625 250.816406 338.835938 C 251.183594 339.242188 251.523438 339.679688 251.824219 340.128906 C 251.933594 340.238281 252.054688 340.359375 252.175781 340.453125 C 252.203125 340.453125 252.230469 340.453125 252.273438 340.441406 C 252.246094 340.441406 252.21875 340.453125 252.191406 340.453125 C 252.433594 340.671875 252.679688 340.875 252.953125 341.054688 C 252.679688 340.875 252.40625 340.671875 252.148438 340.453125 C 252.121094 340.453125 252.09375 340.453125 252.066406 340.46875 C 253.386719 342.523438 254.164062 344.917969 254.21875 347.339844 C 254.097656 344.878906 253.226562 342.480469 251.824219 340.480469 C 251.808594 340.480469 251.808594 340.480469 251.796875 340.480469 C 251.835938 340.5625 251.890625 340.660156 251.933594 340.753906 C 252.273438 341.421875 252.476562 342.007812 252.597656 342.535156 C 252.707031 342.699219 252.804688 342.863281 252.882812 343.027344 C 253.144531 343.515625 253.332031 344.035156 253.46875 344.566406 C 253.605469 345.09375 253.6875 345.640625 253.714844 346.183594 C 253.742188 346.726562 253.726562 347.273438 253.675781 347.816406 C 253.660156 347.953125 253.648438 348.089844 253.621094 348.226562 L 253.550781 348.632812 C 253.496094 348.90625 253.441406 349.164062 253.386719 349.421875 C 253.265625 349.953125 253.144531 350.472656 253.0625 351 C 252.980469 351.53125 252.964844 352.078125 253.035156 352.609375 C 252.9375 352.078125 252.9375 351.53125 253.007812 350.988281 C 253.074219 350.445312 253.183594 349.925781 253.277344 349.394531 C 253.332031 349.136719 253.386719 348.863281 253.429688 348.605469 L 253.484375 348.210938 C 253.496094 348.074219 253.511719 347.941406 253.523438 347.816406 C 253.566406 347.285156 253.566406 346.742188 253.523438 346.210938 C 253.484375 345.679688 253.386719 345.148438 253.238281 344.644531 C 253.128906 344.265625 252.992188 343.898438 252.832031 343.542969 C 252.925781 343.882812 252.992188 344.222656 253.0625 344.566406 C 253.144531 345.027344 253.183594 345.488281 253.199219 345.964844 C 253.210938 346.429688 253.183594 346.90625 253.117188 347.367188 C 253.074219 347.613281 253.035156 347.859375 252.964844 348.089844 C 252.964844 348.265625 252.964844 348.457031 252.953125 348.632812 C 252.9375 348.878906 252.910156 349.136719 252.871094 349.382812 C 252.832031 349.859375 252.75 350.320312 252.585938 350.730469 C 252.488281 351.054688 252.382812 351.382812 252.273438 351.695312 C 252.136719 352.0625 251.984375 352.417969 251.835938 352.769531 L 251.878906 352.824219 C 251.878906 352.824219 253.6875 353.382812 255.238281 353.085938 C 256.804688 352.785156 260.222656 353.371094 261.460938 353.683594 C 265.324219 354.648438 264.453125 357.671875 265.664062 357.792969 C 266.863281 357.914062 269.097656 357.546875 269.871094 357.792969 C 270.648438 358.039062 271.015625 358.148438 271.492188 358.691406 C 271.96875 359.234375 272.457031 359.835938 272.933594 360.257812 C 273.410156 360.679688 275.859375 365.972656 277.398438 370.558594 C 278.921875 375.144531 278.285156 384.535156 276.023438 393.734375 C 273.765625 402.949219 271.792969 405.957031 269.257812 409.140625 C 266.726562 412.339844 266.347656 411.671875 265.121094 412.53125 C 263.894531 413.375 264.183594 414.882812 262.113281 415.0625 C 260.042969 415.253906 252.804688 415.15625 252.804688 415.15625 C 252.804688 415.15625 258.03125 423.894531 251.265625 433.558594 C 249.292969 436.375 249.238281 436.484375 248.257812 437.910156 C 247.277344 439.339844 245.480469 441.898438 244.867188 443.628906 C 244.269531 445.355469 239.804688 458.789062 238.457031 463.074219 C 237.109375 467.363281 235.898438 474.125 235.871094 475.757812 C 235.828125 477.394531 235.925781 476.863281 235.773438 478.398438 C 235.609375 479.9375 235.53125 481.773438 235.609375 482.195312 L 235.691406 482.605469 C 235.691406 482.605469 241.859375 489 246.28125 493.4375 C 250.707031 497.863281 254.679688 501.792969 255.796875 502.746094 C 256.914062 503.714844 257.609375 504.285156 257.609375 504.285156 L 257.839844 504.625 L 258.574219 504.667969 C 258.574219 504.667969 259.1875 504.476562 259.988281 504.9375 C 260.792969 505.402344 260.914062 505.441406 260.914062 505.441406 C 260.914062 505.441406 261.148438 504.9375 261.921875 505.292969 C 262.699219 505.644531 267.011719 507.386719 268.117188 508.546875 C 269.21875 509.703125 269.367188 509.648438 269.3125 510.273438 C 269.257812 510.898438 268.878906 514.34375 265.40625 518.765625 C 261.9375 523.1875 261.214844 524.25 259.867188 526.945312 C 258.519531 529.640625 253.347656 535.503906 251.035156 536.527344 C 248.71875 537.546875 248.296875 537.847656 247.207031 537.058594 C 246.132812 536.253906 245.453125 535.695312 245.886719 534.320312 C 246.324219 532.933594 247.863281 530.566406 248.160156 529.640625 C 248.472656 528.714844 250.230469 524.660156 250.1875 523 C 250.148438 521.335938 250.1875 521.105469 249.957031 519.964844 C 249.726562 518.804688 250.039062 518.382812 250.066406 517.460938 C 250.109375 516.535156 250.324219 516.4375 249.316406 514.777344 C 248.324219 513.117188 247.78125 512.464844 248.324219 512.082031 C 248.867188 511.703125 247.945312 510.503906 246.9375 509.238281 C 245.941406 507.972656 245.507812 507.320312 245.042969 507.007812 C 244.582031 506.695312 237.722656 501.644531 237.722656 501.644531 C 237.722656 501.644531 235.175781 508.667969 233.910156 514.683594 C 232.644531 520.699219 232.414062 524.605469 232.046875 526.113281 C 231.691406 527.613281 231.324219 528.15625 231.324219 528.15625 L 231.378906 529.777344 C 231.378906 529.777344 231.378906 530.648438 231.335938 531.449219 C 231.308594 532.253906 231.691406 533.382812 231.691406 533.382812 C 231.691406 533.382812 231.703125 533.464844 231.882812 533.546875 C 232.058594 533.628906 232.316406 533.886719 232.371094 534.078125 C 232.414062 534.265625 232.890625 537.371094 233.1875 539.085938 C 233.488281 540.800781 233.570312 541.015625 233.664062 541.859375 C 233.761719 542.703125 233.71875 543.359375 233.132812 543.929688 C 232.546875 544.5 230.96875 544.867188 230.546875 544.910156 C 230.140625 544.949219 212.949219 546.078125 209.777344 546.5 C 206.605469 546.9375 202.574219 545.644531 200.628906 544.894531 C 198.683594 544.148438 198.996094 542.363281 198.996094 542.363281 C 198.996094 542.363281 199.429688 541.167969 200.382812 540.703125 C 201.335938 540.242188 201.828125 540.117188 203.1875 539.683594 C 204.550781 539.246094 205.378906 539.195312 206.332031 538.484375 C 207.285156 537.777344 208.726562 536.949219 209.964844 536.117188 C 211.207031 535.289062 211.628906 535.191406 212.5 534.851562 C 213.355469 534.511719 213.152344 534.851562 214.0625 533.871094 C 214.988281 532.890625 214.703125 533.015625 215.261719 532.730469 C 215.820312 532.457031 215.601562 532.605469 216.066406 532.265625 C 216.527344 531.925781 216.800781 531.871094 217.261719 531.558594 C 217.726562 531.246094 217.996094 531.070312 218.339844 530.605469 C 218.679688 530.144531 218.582031 530.117188 218.828125 529.804688 C 219.074219 529.488281 219.875 529.3125 219.875 529.3125 C 219.875 529.3125 220.488281 528.292969 220.625 527.121094 C 220.746094 525.953125 220.691406 526.5625 220.71875 525.121094 C 220.746094 523.679688 220.871094 523.460938 221.058594 522.808594 C 221.25 522.167969 222.3125 512.070312 221.851562 505.769531 C 221.386719 499.453125 221.140625 490.878906 221.140625 490.878906 C 221.140625 490.878906 215.914062 487.75 214.703125 486.675781 C 213.503906 485.585938 212.785156 485.777344 212.0625 485.476562 C 211.339844 485.175781 210.917969 484.632812 210.917969 484.632812 C 210.917969 484.632812 210.199219 483.910156 209.410156 483.136719 C 208.632812 482.359375 207.667969 480.605469 207.421875 480.007812 C 207.175781 479.40625 207.175781 479.160156 207.175781 479.160156 L 206.742188 478.414062 L 206.945312 477.257812 C 206.945312 477.257812 208.972656 452.488281 210.90625 442.839844 C 212.851562 433.1875 215.4375 427.570312 215.683594 426.003906 C 215.929688 424.4375 215.929688 423.691406 215.929688 423.691406 C 215.929688 423.691406 216.121094 423.445312 215.683594 421.6875 C 215.25 419.933594 214.867188 415.046875 214.867188 415.046875 L 213.640625 414.761719 L 213.371094 413.292969 C 213.371094 413.292969 213.777344 410.148438 213.164062 407.480469 C 212.566406 404.8125 212.757812 404.269531 212.363281 401.929688 C 211.96875 399.585938 211.695312 397.980469 211.695312 397.980469 C 211.695312 397.980469 207.652344 400.105469 205.992188 399.96875 C 204.332031 399.832031 203.949219 399.382812 202.574219 398.347656 C 201.199219 397.316406 200.015625 396.6875 199.050781 396.253906 C 198.082031 395.816406 197.90625 395.492188 197.472656 394.890625 C 197.035156 394.308594 196.941406 393.859375 196.941406 393.859375 C 196.941406 393.859375 191.6875 386.835938 189.753906 384.863281 C 187.808594 382.890625 187.398438 382.152344 186.960938 381.9375 C 186.527344 381.71875 184.988281 380.425781 182.921875 379.335938 C 180.851562 378.246094 180.496094 377.472656 180.386719 376.722656 C 180.28125 375.988281 180.878906 375.308594 180.878906 375.308594 C 180.878906 375.308594 180.703125 374.300781 181.082031 373.675781 C 181.464844 373.050781 181.613281 372.683594 181.613281 372.683594 C 181.613281 372.683594 181.300781 370.886719 181.476562 370.546875 C 181.613281 370.300781 181.816406 369.863281 182.0625 369.523438 C 181.394531 368.164062 180.484375 365.808594 180.101562 365.074219 C 179.273438 363.496094 178.359375 362.921875 178.511719 362.652344 C 178.605469 362.472656 179.039062 362.378906 179.542969 362.527344 C 178.183594 360.230469 176.769531 357.832031 176.617188 357.546875 C 176.320312 356.988281 176.726562 356.988281 177.054688 356.882812 Z M 214.375 319.195312 C 214.226562 319.535156 214.132812 319.902344 214.117188 320.285156 C 214.105469 320.558594 214.117188 320.84375 214.160156 321.117188 C 214.171875 321.046875 214.199219 320.980469 214.214844 320.898438 C 214.1875 320.597656 214.1875 320.300781 214.214844 320.011719 C 214.242188 319.6875 214.335938 319.359375 214.484375 319.058594 C 214.457031 319.101562 214.417969 319.140625 214.390625 319.167969 C 214.375 319.167969 214.375 319.183594 214.375 319.195312 Z M 214.59375 323.414062 C 214.609375 323.414062 214.609375 323.414062 214.59375 323.414062 C 214.59375 323.402344 214.59375 323.402344 214.582031 323.386719 C 214.582031 323.386719 214.582031 323.386719 214.582031 323.402344 C 214.59375 323.414062 214.59375 323.414062 214.59375 323.414062 Z M 214.539062 319.167969 C 214.417969 319.441406 214.363281 319.726562 214.335938 320.011719 C 214.335938 320.054688 214.335938 320.09375 214.335938 320.121094 C 214.375 319.835938 214.445312 319.507812 214.539062 319.167969 Z M 214.199219 333.9375 C 214.199219 333.9375 213.980469 334.113281 213.792969 334.085938 C 213.601562 334.058594 213.464844 333.949219 213.464844 333.949219 L 214.132812 333.703125 C 214.132812 333.703125 214.132812 333.253906 214.0625 332.832031 L 212.59375 333.160156 C 212.59375 333.160156 212.742188 333.976562 212.878906 334.316406 C 213.179688 335.011719 213.503906 335.378906 213.792969 335.597656 C 213.875 335.40625 213.941406 335.226562 213.996094 335.078125 C 214.242188 334.304688 214.199219 333.9375 214.199219 333.9375 Z M 213.640625 325.960938 C 213.722656 325.390625 213.859375 324.816406 214.050781 324.273438 C 214.0625 324.21875 214.089844 324.164062 214.105469 324.109375 C 213.765625 324.652344 213.585938 325.308594 213.640625 325.960938 Z M 213.628906 320.488281 C 213.601562 320.585938 213.585938 320.667969 213.574219 320.761719 L 213.558594 320.828125 L 213.558594 320.898438 C 213.558594 320.9375 213.546875 320.992188 213.546875 321.035156 C 213.546875 321.210938 213.558594 321.402344 213.601562 321.578125 C 213.683594 321.933594 213.832031 322.285156 214.023438 322.597656 C 214.160156 322.84375 214.335938 323.0625 214.511719 323.28125 C 214.527344 323.265625 214.527344 323.253906 214.539062 323.238281 C 214.511719 323.183594 214.5 323.144531 214.472656 323.089844 C 214.28125 322.804688 214.050781 322.328125 214.078125 321.6875 C 214.0625 321.59375 214.050781 321.511719 214.035156 321.414062 C 213.980469 321.035156 213.953125 320.640625 213.980469 320.246094 C 213.996094 320 214.050781 319.769531 214.117188 319.535156 C 213.886719 319.851562 213.722656 320.164062 213.628906 320.488281 Z M 214.539062 318.882812 C 214.59375 318.828125 214.636719 318.789062 214.691406 318.734375 C 214.71875 318.664062 214.746094 318.597656 214.773438 318.53125 C 214.675781 318.636719 214.609375 318.761719 214.539062 318.882812 Z M 251.140625 351.953125 L 251.277344 352.117188 C 251.320312 352.035156 251.359375 351.96875 251.402344 351.886719 C 251.320312 351.914062 251.238281 351.941406 251.140625 351.953125 Z M 252.613281 346.863281 C 252.613281 346.835938 252.597656 346.808594 252.597656 346.796875 C 252.613281 346.808594 252.613281 346.835938 252.613281 346.863281 Z M 251.523438 351.832031 C 251.46875 351.953125 251.402344 352.078125 251.332031 352.1875 L 251.375 352.242188 C 251.457031 352.144531 251.535156 352.050781 251.605469 351.941406 C 251.660156 351.859375 251.714844 351.777344 251.753906 351.695312 C 251.699219 351.75 251.617188 351.804688 251.523438 351.832031 Z M 250.691406 338.617188 L 250.664062 338.25 L 250.652344 338.15625 L 250.636719 338.058594 L 250.613281 337.867188 C 250.597656 337.746094 250.585938 337.625 250.570312 337.5 L 250.503906 337.132812 L 250.476562 336.941406 L 250.433594 336.765625 L 250.351562 336.398438 C 250.339844 336.332031 250.324219 336.261719 250.296875 336.195312 C 250.269531 336.574219 250.230469 336.917969 250.214844 337.257812 C 250.1875 337.582031 250.1875 337.773438 250.203125 337.921875 C 250.296875 338.113281 250.40625 338.316406 250.515625 338.507812 C 250.570312 338.5625 250.613281 338.632812 250.679688 338.710938 C 250.707031 338.683594 250.707031 338.65625 250.691406 338.617188 Z M 252.121094 340.46875 C 252.054688 340.414062 251.984375 340.34375 251.917969 340.292969 C 251.957031 340.359375 252 340.414062 252.039062 340.480469 C 252.066406 340.480469 252.09375 340.480469 252.121094 340.46875 Z M 251.796875 340.480469 C 251.769531 340.441406 251.742188 340.398438 251.714844 340.359375 C 251.742188 340.398438 251.753906 340.441406 251.78125 340.480469 C 251.78125 340.480469 251.78125 340.480469 251.796875 340.480469 Z M 253.0625 345.953125 C 253.035156 345.488281 252.980469 345.027344 252.882812 344.578125 C 252.84375 344.375 252.789062 344.171875 252.734375 343.953125 C 252.734375 344.617188 252.625 345.175781 252.570312 345.722656 C 252.625 345.898438 252.679688 346.074219 252.722656 346.238281 C 252.75 346.375 252.777344 346.496094 252.804688 346.632812 C 252.828125 346.769531 252.855469 346.890625 252.871094 347.027344 C 252.910156 347.285156 252.925781 347.546875 252.9375 347.816406 C 252.964844 347.652344 252.992188 347.503906 253.019531 347.339844 C 253.074219 346.878906 253.074219 346.414062 253.0625 345.953125 Z M 252.164062 351.65625 C 252.21875 351.492188 252.273438 351.34375 252.3125 351.179688 C 252.203125 351.34375 252.066406 351.492188 251.90625 351.613281 C 251.835938 351.738281 251.753906 351.859375 251.671875 351.980469 C 251.589844 352.089844 251.507812 352.1875 251.414062 352.28125 L 251.769531 352.703125 C 251.90625 352.363281 252.039062 352.007812 252.164062 351.65625 Z M 239.136719 319.851562 C 239.136719 319.835938 239.125 319.824219 239.125 319.808594 C 239.109375 319.769531 239.097656 319.742188 239.082031 319.699219 C 239.042969 319.632812 239 319.5625 238.945312 319.496094 C 238.878906 319.402344 238.824219 319.304688 238.753906 319.210938 C 238.726562 319.167969 238.6875 319.113281 238.660156 319.074219 C 238.796875 319.320312 238.917969 319.535156 239.015625 319.714844 C 239.042969 319.769531 239.097656 319.808594 239.136719 319.851562 Z M 239.570312 320.613281 C 239.585938 320.652344 239.597656 320.695312 239.613281 320.734375 C 239.652344 320.800781 239.679688 320.871094 239.722656 320.953125 C 239.679688 320.84375 239.625 320.734375 239.570312 320.613281 Z M 240.632812 334.125 C 240.730469 333.648438 240.8125 333.171875 240.878906 332.695312 C 240.796875 332.957031 240.714844 333.214844 240.660156 333.527344 C 240.621094 333.730469 240.621094 333.9375 240.632812 334.125 Z M 241.355469 329.242188 C 241.164062 328.804688 241.164062 329.292969 241.179688 329.976562 C 241.191406 330.070312 241.191406 330.164062 241.191406 330.261719 C 241.21875 330.980469 241.152344 331.691406 241.042969 332.382812 C 240.960938 332.902344 240.851562 333.417969 240.742188 333.921875 C 240.839844 333.691406 240.933594 333.472656 241.027344 333.242188 C 241.261719 332.671875 241.492188 332.085938 241.628906 331.472656 C 241.695312 331.144531 241.75 330.804688 241.765625 330.464844 C 241.683594 330.003906 241.519531 329.59375 241.355469 329.242188 Z M 237.9375 317.660156 C 238.0625 317.820312 238.183594 317.984375 238.292969 318.148438 C 238.347656 318.203125 238.402344 318.242188 238.457031 318.296875 C 238.429688 318.257812 238.414062 318.214844 238.386719 318.164062 C 238.359375 318.109375 238.332031 318.054688 238.304688 318 C 238.144531 317.78125 237.980469 317.578125 237.800781 317.386719 C 237.84375 317.46875 237.882812 317.578125 237.9375 317.660156 Z M 239.355469 319.617188 C 239.273438 319.507812 239.175781 319.386719 239.082031 319.277344 C 239.097656 319.304688 239.125 319.332031 239.136719 319.375 C 239.382812 319.769531 239.585938 320.175781 239.777344 320.597656 C 239.816406 320.652344 239.859375 320.707031 239.898438 320.761719 C 239.734375 320.378906 239.558594 320 239.367188 319.632812 C 239.367188 319.632812 239.355469 319.617188 239.355469 319.617188 Z M 240.035156 321.222656 C 240.117188 321.457031 240.199219 321.671875 240.265625 321.90625 C 240.308594 322.027344 240.335938 322.136719 240.375 322.257812 C 240.429688 322.367188 240.484375 322.488281 240.550781 322.625 C 240.714844 322.980469 240.867188 323.292969 241 323.578125 C 240.851562 322.722656 240.511719 321.917969 240.035156 321.222656 Z M 241.136719 333.988281 C 241.300781 332.75 241.519531 333.039062 241.710938 332.328125 C 241.738281 332.125 241.777344 331.921875 241.816406 331.71875 C 241.84375 331.472656 241.84375 331.226562 241.832031 331.007812 C 241.804688 331.171875 241.765625 331.335938 241.722656 331.5 C 241.574219 332.113281 241.328125 332.695312 241.070312 333.269531 C 240.945312 333.539062 240.824219 333.800781 240.703125 334.070312 C 240.675781 334.167969 240.660156 334.261719 240.632812 334.359375 C 240.6875 334.792969 240.824219 335.214844 240.917969 335.472656 C 240.945312 335.378906 240.988281 335.269531 241.015625 335.175781 C 241.042969 334.886719 241.070312 334.492188 241.136719 333.988281 Z M 237.488281 316.625 C 237.460938 316.582031 237.421875 316.542969 237.394531 316.488281 C 237.449219 316.609375 237.515625 316.746094 237.585938 316.898438 C 237.597656 316.921875 237.613281 316.9375 237.613281 316.964844 C 237.75 317.113281 237.871094 317.265625 238.007812 317.425781 C 237.84375 317.15625 237.667969 316.882812 237.488281 316.625 Z M 239.925781 320.800781 C 239.996094 320.882812 240.046875 320.980469 240.101562 321.0625 C 240.28125 321.320312 240.429688 321.59375 240.566406 321.878906 C 240.292969 321.171875 239.953125 320.488281 239.53125 319.878906 C 239.679688 320.175781 239.816406 320.488281 239.925781 320.800781 Z M 241.070312 323.59375 C 241.070312 323.605469 241.070312 323.632812 241.082031 323.648438 C 241.082031 323.703125 241.097656 323.742188 241.097656 323.796875 C 241.109375 323.824219 241.125 323.851562 241.136719 323.878906 C 241.109375 323.78125 241.082031 323.6875 241.070312 323.59375 Z M 241.027344 335.203125 C 241 335.28125 240.960938 335.378906 240.933594 335.460938 C 240.960938 335.542969 240.972656 335.597656 241 335.636719 C 241.054688 335.8125 241.027344 335.675781 241.027344 335.203125 Z M 239.339844 344.414062 C 239.464844 344.660156 239.285156 343.828125 239.285156 342.945312 C 239.285156 342.074219 239.015625 343.164062 238.988281 343.667969 C 238.960938 344.171875 239.21875 344.171875 239.339844 344.414062 Z M 238.457031 342.726562 C 238.566406 342.945312 238.484375 342.441406 238.742188 341.625 C 239.015625 340.820312 239.230469 340.753906 239.613281 339.09375 C 239.996094 337.433594 238.429688 339.949219 238.019531 340.929688 C 237.625 341.910156 238.347656 342.496094 238.457031 342.726562 Z M 237.882812 339.230469 C 238.128906 338.820312 238.578125 338.441406 238.824219 337.570312 C 239.070312 336.699219 238.332031 337.679688 238.035156 338.113281 C 237.75 338.535156 237.652344 339.433594 237.625 339.707031 C 237.613281 339.964844 237.625 339.625 237.882812 339.230469 Z M 237.882812 339.230469 " fill-opacity="1" fill-rule="evenodd"/></g></svg>